# xmcd
#
# Track frame offsets:
#	182
#	10030
#	22817
#	33605
#	48475
#	58667
#	70457
#	83337
#	95305
#	108575
#	118722
#	129167
#	140092
#	149650
#	157662
#	168050
#	178825
#	193775
#
# Disc length: 2773 seconds
#
# Revision: 1
# Processed by: cddbd v1.5PL3 Copyright (c) Steve Scherf et al.
# Submitted via: MusicWizard 6.0.1
#
DISCID=ee0ad312
DTITLE=Various Artist - Country's Golden Greats (Disk 1)
DYEAR=1994
DGENRE=Country
TTITLE0=Ned Miller - From A Jack To A King
TTITLE1=Billie Jo Spears - What I've Got In Mind
TTITLE2=Hank Locklin - Send Me The Pillow
TTITLE3=Jeannie C. Riley - Harper Valley P.T.A.
TTITLE4=Roger Miller - King Of The Road
TTITLE5=Patsy Cline - A Poor Man's Roses
TTITLE6=Freddy Fender - Silver Wings
TTITLE7=Jack Greene - There Goes My Everything
TTITLE8=Lynn Anderson - Rose Garden
TTITLE9=Jim Reeves - He'll Have To Go
TTITLE10=Waylon Jennings - White Lightning
TTITLE11=Patsy Cline - I Cried All The Way To The Altar
TTITLE12=Boxcar Willie - I'm Movin' On
TTITLE13=Tammy Wynette - When The Grass Grows Over Me
TTITLE14=Johnny Russel - Jambalaya
TTITLE15=Billy Jo Spears - I'm So Lonesome I Could Cry
TTITLE16=Don Gibson - Sweet Dreams
TTITLE17=Tammy Wynette - Crying In The Rain
EXTD=18 Country Classics
EXTT0=
EXTT1=
EXTT2=
EXTT3=
EXTT4=
EXTT5=
EXTT6=
EXTT7=
EXTT8=
EXTT9=
EXTT10=
EXTT11=
EXTT12=
EXTT13=
EXTT14=
EXTT15=
EXTT16=
EXTT17=
PLAYORDER=
